<?xml version="1.0" standalone="no"?>
 <!DOCTYPE svg PUBLIC "-//W3C//DTD SVG 1.1//EN" 
 "http://www.w3.org/Graphics/SVG/1.1/DTD/svg11.dtd"> 
<svg xmlns="http://www.w3.org/2000/svg" version="1.1" 
    width="29.7002cm" height="21.0007cm" viewBox="0 0 116930 82680 ">
<title>SVG Picture created as OsEID-B.Cu.svg date 2020/10/01 09:21:17 </title>
  <desc>Picture generated by PCBNEW </desc>
<g style="fill:#000000; fill-opacity:1;stroke:#000000; stroke-opacity:1;
stroke-linecap:round; stroke-linejoin:round; "
 transform="translate(0 0) scale(1 1)">
</g>
<g style="fill:#000000; fill-opacity:0.0; 
stroke:#000000; stroke-width:-0.000393701; stroke-opacity:1; 
stroke-linecap:round; stroke-linejoin:round;">
</g>
<g style="fill:#000000; fill-opacity:0.0; 
stroke:#000000; stroke-width:39.3701; stroke-opacity:1; 
stroke-linecap:round; stroke-linejoin:round;">
<path d="M53445 33602
L53445 30413
" />
<path d="M50256 33602
L53445 33602
" />
<path d="M50256 30413
L50256 33602
" />
<path d="M53445 30413
L50256 30413
" />
</g>
<g style="fill:#000000; fill-opacity:0.0; 
stroke:#000000; stroke-width:275.591; stroke-opacity:1; 
stroke-linecap:round; stroke-linejoin:round;">
<path d="M46566 25442
L47316 25442
" />
<path d="M46416 25892
L46941 24317
L47466 25892
" />
<path d="M47766 24317
L48291 25892
L48815 24317
" />
<path d="M50240 25892
L49715 25142
" />
<path d="M49340 25892
L49340 24317
L49940 24317
L50090 24392
L50165 24467
L50240 24617
L50240 24842
L50165 24992
L50090 25067
L49940 25142
L49340 25142
" />
<path d="M51740 25892
L50840 25892
" />
<path d="M51290 25892
L51290 24317
L51140 24542
L50990 24692
L50840 24767
" />
<path d="M52340 24467
L52415 24392
L52565 24317
L52940 24317
L53090 24392
L53165 24467
L53240 24617
L53240 24767
L53165 24992
L52265 25892
L53240 25892
" />
<path d="M54140 24992
L53990 24917
L53915 24842
L53840 24692
L53840 24617
L53915 24467
L53990 24392
L54140 24317
L54440 24317
L54590 24392
L54665 24467
L54740 24617
L54740 24692
L54665 24842
L54590 24917
L54440 24992
L54140 24992
L53990 25067
L53915 25142
L53840 25292
L53840 25592
L53915 25742
L53990 25817
L54140 25892
L54440 25892
L54590 25817
L54665 25742
L54740 25592
L54740 25292
L54665 25142
L54590 25067
L54440 24992
" />
<path d="M55415 25892
L55415 24317
L55790 24317
L56015 24392
L56165 24542
L56240 24692
L56315 24992
L56315 25217
L56240 25517
L56165 25667
L56015 25817
L55790 25892
L55415 25892
" />
<path d="M56914 25442
L57664 25442
" />
<path d="M56764 25892
L57289 24317
L57814 25892
" />
<path d="M58189 24317
L59164 24317
L58639 24917
L58864 24917
L59014 24992
L59089 25067
L59164 25217
L59164 25592
L59089 25742
L59014 25817
L58864 25892
L58414 25892
L58264 25817
L58189 25742
" />
<path d="M59764 24467
L59839 24392
L59989 24317
L60364 24317
L60514 24392
L60589 24467
L60664 24617
L60664 24767
L60589 24992
L59689 25892
L60664 25892
" />
<path d="M62389 24842
L62764 25892
L63139 24842
" />
<path d="M64564 25892
L63664 25892
" />
<path d="M64114 25892
L64114 24317
L63964 24542
L63814 24692
L63664 24767
" />
<path d="M65238 25742
L65313 25817
L65238 25892
L65163 25817
L65238 25742
L65238 25892
" />
<path d="M66288 24317
L66438 24317
L66588 24392
L66663 24467
L66738 24617
L66813 24917
L66813 25292
L66738 25592
L66663 25742
L66588 25817
L66438 25892
L66288 25892
L66138 25817
L66063 25742
L65988 25592
L65913 25292
L65913 24917
L65988 24617
L66063 24467
L66138 24392
L66288 24317
" />
</g>
<g style="fill:#000000; fill-opacity:0.0; 
stroke:#000000; stroke-width:314.961; stroke-opacity:1; 
stroke-linecap:round; stroke-linejoin:round;">
<path d="M46716 21066
L47166 21066
L47391 21178
L47616 21403
L47729 21853
L47729 22641
L47616 23091
L47391 23316
L47166 23428
L46716 23428
L46491 23316
L46266 23091
L46154 22641
L46154 21853
L46266 21403
L46491 21178
L46716 21066
" />
<path d="M48629 23316
L48853 23428
L49303 23428
L49528 23316
L49641 23091
L49641 22978
L49528 22753
L49303 22641
L48966 22641
L48741 22528
L48629 22303
L48629 22191
L48741 21966
L48966 21853
L49303 21853
L49528 21966
" />
<path d="M50653 22191
L51441 22191
" />
<path d="M51778 23428
L50653 23428
L50653 21066
L51778 21066
" />
<path d="M52790 23428
L52790 21066
" />
<path d="M53915 23428
L53915 21066
L54478 21066
L54815 21178
L55040 21403
L55153 21628
L55265 22078
L55265 22416
L55153 22866
L55040 23091
L54815 23316
L54478 23428
L53915 23428
" />
</g>
<g style="fill:#000000; fill-opacity:0.0; 
stroke:#000000; stroke-width:39.3701; stroke-opacity:1; 
stroke-linecap:round; stroke-linejoin:round;">
<path d="M43859.1 40311 A625.984 625.984 0.0 0 0 44485.1 40937 " />
<path d="M44485.1 19685 A625.984 625.984 0.0 0 0 43859.1 20311 " />
<path d="M76933.9 40937 A625.984 625.984 0.0 0 0 77559.9 40311 " />
<path d="M77559.9 20311 A625.984 625.984 0.0 0 0 76933.9 19685 " />
<path d="M76933 40937
L44485 40937
" />
<path d="M77559 20311
L77559 40311
" />
<path d="M43859 20311
L43859 40311
" />
<path d="M76933 19685
L44485 19685
" />
</g>
<g style="fill:#000000; fill-opacity:0.0; 
stroke:#000000; stroke-width:0; stroke-opacity:1; 
stroke-linecap:round; stroke-linejoin:round;">
</g>
<g style="fill:#000000; fill-opacity:1.0; 
stroke:#000000; stroke-width:0; stroke-opacity:1; 
stroke-linecap:round; stroke-linejoin:round;">
<polyline style="fill-rule:evenodd;"
points="50857,33523
50640,33523
50640,33996
50857,33996
50857,33523
" /> 
<polyline style="fill-rule:evenodd;"
points="51172,33523
50955,33523
50955,33996
51172,33996
51172,33523
" /> 
<polyline style="fill-rule:evenodd;"
points="51487,33523
51270,33523
51270,33996
51487,33996
51487,33523
" /> 
<polyline style="fill-rule:evenodd;"
points="51802,33523
51585,33523
51585,33996
51802,33996
51802,33523
" /> 
<polyline style="fill-rule:evenodd;"
points="52117,33523
51900,33523
51900,33996
52117,33996
52117,33523
" /> 
<polyline style="fill-rule:evenodd;"
points="52431,33523
52215,33523
52215,33996
52431,33996
52431,33523
" /> 
<polyline style="fill-rule:evenodd;"
points="52746,33523
52530,33523
52530,33996
52746,33996
52746,33523
" /> 
<polyline style="fill-rule:evenodd;"
points="53061,33523
52845,33523
52845,33996
53061,33996
53061,33523
" /> 
<polyline style="fill-rule:evenodd;"
points="53367,33001
53367,33218
53839,33218
53839,33001
53367,33001
" /> 
<polyline style="fill-rule:evenodd;"
points="53367,32687
53367,32903
53839,32903
53839,32687
53367,32687
" /> 
<polyline style="fill-rule:evenodd;"
points="53367,32372
53367,32588
53839,32588
53839,32372
53367,32372
" /> 
<polyline style="fill-rule:evenodd;"
points="53367,32057
53367,32273
53839,32273
53839,32057
53367,32057
" /> 
<polyline style="fill-rule:evenodd;"
points="53367,31742
53367,31958
53839,31958
53839,31742
53367,31742
" /> 
<polyline style="fill-rule:evenodd;"
points="53367,31427
53367,31643
53839,31643
53839,31427
53367,31427
" /> 
<polyline style="fill-rule:evenodd;"
points="53367,31112
53367,31328
53839,31328
53839,31112
53367,31112
" /> 
<polyline style="fill-rule:evenodd;"
points="53367,30797
53367,31013
53839,31013
53839,30797
53367,30797
" /> 
<polyline style="fill-rule:evenodd;"
points="53061,30019
52845,30019
52845,30492
53061,30492
53061,30019
" /> 
<polyline style="fill-rule:evenodd;"
points="52746,30019
52530,30019
52530,30492
52746,30492
52746,30019
" /> 
<polyline style="fill-rule:evenodd;"
points="52431,30019
52215,30019
52215,30492
52431,30492
52431,30019
" /> 
<polyline style="fill-rule:evenodd;"
points="52117,30019
51900,30019
51900,30492
52117,30492
52117,30019
" /> 
<polyline style="fill-rule:evenodd;"
points="51802,30019
51585,30019
51585,30492
51802,30492
51802,30019
" /> 
<polyline style="fill-rule:evenodd;"
points="51487,30019
51270,30019
51270,30492
51487,30492
51487,30019
" /> 
<polyline style="fill-rule:evenodd;"
points="51172,30019
50955,30019
50955,30492
51172,30492
51172,30019
" /> 
<polyline style="fill-rule:evenodd;"
points="50857,30019
50640,30019
50640,30492
50857,30492
50857,30019
" /> 
<polyline style="fill-rule:evenodd;"
points="49863,30797
49863,31013
50335,31013
50335,30797
49863,30797
" /> 
<polyline style="fill-rule:evenodd;"
points="49863,31112
49863,31328
50335,31328
50335,31112
49863,31112
" /> 
<polyline style="fill-rule:evenodd;"
points="49863,31427
49863,31643
50335,31643
50335,31427
49863,31427
" /> 
<polyline style="fill-rule:evenodd;"
points="49863,31742
49863,31958
50335,31958
50335,31742
49863,31742
" /> 
<polyline style="fill-rule:evenodd;"
points="49863,32057
49863,32273
50335,32273
50335,32057
49863,32057
" /> 
<polyline style="fill-rule:evenodd;"
points="49863,32372
49863,32588
50335,32588
50335,32372
49863,32372
" /> 
<polyline style="fill-rule:evenodd;"
points="49863,32687
49863,32903
50335,32903
50335,32687
49863,32687
" /> 
<polyline style="fill-rule:evenodd;"
points="49863,33001
49863,33218
50335,33218
50335,33001
49863,33001
" /> 
<polyline style="fill-rule:evenodd;"
points="53310,35100
53310,34500
52710,34500
52710,35100
53310,35100
" /> 
<circle cx="52010" cy="34800" r="300" /> 
</g>
<g style="fill:#000000; fill-opacity:1.0; 
stroke:#000000; stroke-width:59.0551; stroke-opacity:1; 
stroke-linecap:round; stroke-linejoin:round;">
</g>
<g style="fill:#000000; fill-opacity:1.0; 
stroke:#000000; stroke-width:0; stroke-opacity:1; 
stroke-linecap:round; stroke-linejoin:round;">
<circle cx="51010" cy="34800" r="300" /> 
</g>
<g style="fill:#000000; fill-opacity:1.0; 
stroke:#000000; stroke-width:59.0551; stroke-opacity:1; 
stroke-linecap:round; stroke-linejoin:round;">
</g>
<g style="fill:#000000; fill-opacity:1.0; 
stroke:#000000; stroke-width:0; stroke-opacity:1; 
stroke-linecap:round; stroke-linejoin:round;">
<polyline style="fill-rule:evenodd;"
points="72437,31444
73815,31444
73815,30618
72437,30618
72437,31444
" /> 
<polyline style="fill-rule:evenodd;"
points="69445,31444
70823,31444
70823,30618
69445,30618
69445,31444
" /> 
<polyline style="fill-rule:evenodd;"
points="72437,32444
73815,32444
73815,31618
72437,31618
72437,32444
" /> 
<polyline style="fill-rule:evenodd;"
points="69445,32444
70823,32444
70823,31618
69445,31618
69445,32444
" /> 
<polyline style="fill-rule:evenodd;"
points="72437,33444
73815,33444
73815,32618
72437,32618
72437,33444
" /> 
<polyline style="fill-rule:evenodd;"
points="69445,33444
70823,33444
70823,32618
69445,32618
69445,33444
" /> 
</g>
<g style="fill:#000000; fill-opacity:1.0; 
stroke:#000000; stroke-width:177.165; stroke-opacity:1; 
stroke-linecap:round; stroke-linejoin:round;">
</g>
<g style="fill:#000000; fill-opacity:0.0; 
stroke:#000000; stroke-width:177.165; stroke-opacity:1; 
stroke-linecap:round; stroke-linejoin:round;">
<path d="M74318 31031
L73126 31031
" />
<path d="M74530 28160
L74530 30820
" />
<path d="M48550 27920
L74290 27920
" />
<path d="M74290 27920
L74530 28160
" />
<path d="M50748 34041
L50410 34380
" />
<path d="M50410 34380
L48630 34380
" />
<path d="M48270 28200
L48550 27920
" />
<path d="M74530 30820
L74318 31031
" />
<path d="M50748 33789
L50748 34041
" />
<path d="M48630 34380
L48270 34020
" />
<path d="M48270 34020
L48270 28200
" />
<path d="M54354 31535
L53603 31535
" />
<path d="M70134 33031
L55850 33031
" />
<path d="M55850 33031
L54354 31535
" />
<path d="M70134 31031
L57001 31031
" />
<path d="M50099 32795
L49505 32795
" />
<path d="M55210 29240
L57001 31031
" />
<path d="M49650 29240
L55210 29240
" />
<path d="M49505 32795
L49250 32540
" />
<path d="M49250 32540
L49250 29640
" />
<path d="M49250 29640
L49650 29240
" />
<path d="M72141 32031
L73126 32031
" />
<path d="M71730 31620
L72141 32031
" />
<path d="M71730 28820
L71730 31620
" />
<path d="M48960 33110
L48750 32900
" />
<path d="M48750 32900
L48750 28920
" />
<path d="M71510 28600
L71730 28820
" />
<path d="M50099 33110
L48960 33110
" />
<path d="M48750 28920
L49070 28600
" />
<path d="M49070 28600
L71510 28600
" />
<path d="M74221 33031
L74470 33280
" />
<path d="M73126 33031
L74221 33031
" />
<path d="M52010 33761
L52008 33759
" />
<path d="M52010 34800
L52010 33761
" />
<path d="M52010 34800
L52010 35340
" />
<path d="M52010 35340
L52330 35660
" />
<path d="M52330 35660
L74030 35660
" />
<path d="M74470 35220
L74470 33280
" />
<path d="M74030 35660
L74470 35220
" />
<path d="M71241 32031
L70134 32031
" />
<path d="M71590 32380
L71241 32031
" />
<path d="M52323 34113
L52323 33759
" />
<path d="M53010 34800
L52323 34113
" />
<path d="M53010 34800
L71010 34800
" />
<path d="M71590 34220
L71010 34800
" />
<path d="M71590 32380
L71590 34220
" />
<path d="M51693 34116
L51693 33759
" />
<path d="M51010 34800
L51693 34116
" />
</g> 
</svg>
