<?xml version="1.0" standalone="no"?>
 <!DOCTYPE svg PUBLIC "-//W3C//DTD SVG 1.1//EN" 
 "http://www.w3.org/Graphics/SVG/1.1/DTD/svg11.dtd"> 
<svg xmlns="http://www.w3.org/2000/svg" version="1.1" 
    width="29.7002cm" height="21.0007cm" viewBox="0 0 116930 82680 ">
<title>SVG Picture created as OsEID-B_Cu.svg date 2015/07/22 08:04:01 </title>
  <desc>Picture generated by PCBNEW </desc>
<g style="fill:#000000; fill-opacity:1;stroke:#000000; stroke-opacity:1;
stroke-linecap:round; stroke-linejoin:round; "
 transform="translate(0 0) scale(1 1)">
</g>
<g style="fill:#000000; fill-opacity:0.0; 
stroke:#000000; stroke-width:157.48; stroke-opacity:1; 
stroke-linecap:round; stroke-linejoin:round;">
<path d="M60457 60070
L60007 60070
L59782 59957
L59557 59732
L59445 59282
L59445 58495
L59557 58045
L59782 57820
L60007 57708
L60457 57708
L60682 57820
L60907 58045
L61020 58495
L61020 59282
L60907 59732
L60682 59957
L60457 60070
" />
<path d="M58545 57820
L58320 57708
L57870 57708
L57645 57820
L57533 58045
L57533 58158
L57645 58383
L57870 58495
L58208 58495
L58433 58608
L58545 58832
L58545 58945
L58433 59170
L58208 59282
L57870 59282
L57645 59170
" />
<path d="M56520 58945
L55733 58945
" />
<path d="M55395 57708
L56520 57708
L56520 60070
L55395 60070
" />
<path d="M54383 57708
L54383 60070
" />
<path d="M53258 57708
L53258 60070
L52696 60070
L52358 59957
L52133 59732
L52021 59507
L51908 59057
L51908 58720
L52021 58270
L52133 58045
L52358 57820
L52696 57708
L53258 57708
" />
</g>
<g style="fill:#000000; fill-opacity:0.0; 
stroke:#000000; stroke-width:39.3701; stroke-opacity:1; 
stroke-linecap:round; stroke-linejoin:round;">
<path d="M64110 54861
L64110 54467
" />
<path d="M63559 54861
L63559 54467
" />
<path d="M63559 54861
L64110 54861
" />
<path d="M64110 54467
L63559 54467
" />
<path d="M67913 53349
L62007 53349
" />
<path d="M67913 47443
L67913 53349
" />
<path d="M62007 47443
L67913 47443
" />
<path d="M62007 53349
L62007 47443
" />
<path d="M73070.9 42369 A625.984 625.984 0.0 0 0 72444.9 41743 " />
<path d="M72444.9 62995 A625.984 625.984 0.0 0 0 73070.9 62369 " />
<path d="M39996.1 41743 A625.984 625.984 0.0 0 0 39370.1 42369 " />
<path d="M39370.1 62369 A625.984 625.984 0.0 0 0 39996.1 62995 " />
<path d="M39996 41742
L72444 41742
" />
<path d="M39370 62368
L39370 42368
" />
<path d="M73070 62368
L73070 42368
" />
<path d="M39996 62994
L72444 62994
" />
</g>
<g style="fill:#000000; fill-opacity:0.0; 
stroke:#000000; stroke-width:59.0551; stroke-opacity:1; 
stroke-linecap:round; stroke-linejoin:round;">
</g>
<g style="fill:#000000; fill-opacity:1.0; 
stroke:#000000; stroke-width:59.0551; stroke-opacity:1; 
stroke-linecap:round; stroke-linejoin:round;">
<polyline style="fill-rule:evenodd;"
points="64344,54949
64344,54378
64009,54378
64009,54949
64344,54949
" /> 
<polyline style="fill-rule:evenodd;"
points="63635,54949
63635,54378
63301,54378
63301,54949
63635,54949
" /> 
<polyline style="fill-rule:evenodd;"
points="61446,52817
62175,52817
62175,52699
61446,52699
61446,52817
" /> 
</g>
<g style="fill:#000000; fill-opacity:1.0; 
stroke:#000000; stroke-width:177.165; stroke-opacity:1; 
stroke-linecap:round; stroke-linejoin:round;">
<path d="M62116 52443
L61505 52443
" />
<path d="M62116 52128
L61505 52128
" />
<path d="M62116 51813
L61505 51813
" />
<path d="M62116 51498
L61505 51498
" />
<path d="M62116 51183
L61505 51183
" />
<path d="M62116 50868
L61505 50868
" />
<path d="M62116 50554
L61505 50554
" />
<path d="M62116 50239
L61505 50239
" />
<path d="M62116 49924
L61505 49924
" />
<path d="M62116 49609
L61505 49609
" />
<path d="M62116 49294
L61505 49294
" />
<path d="M62116 48979
L61505 48979
" />
<path d="M62116 48664
L61505 48664
" />
<path d="M62116 48349
L61505 48349
" />
<path d="M62116 48034
L61505 48034
" />
<path d="M62598 47552
L62598 46941
" />
<path d="M62913 47552
L62913 46941
" />
<path d="M63228 47552
L63228 46941
" />
<path d="M63543 47552
L63543 46941
" />
<path d="M63858 47552
L63858 46941
" />
<path d="M64173 47552
L64173 46941
" />
<path d="M64488 47552
L64488 46941
" />
<path d="M64803 47552
L64803 46941
" />
<path d="M65118 47552
L65118 46941
" />
<path d="M65433 47552
L65433 46941
" />
<path d="M65748 47552
L65748 46941
" />
<path d="M66062 47552
L66062 46941
" />
<path d="M66377 47552
L66377 46941
" />
<path d="M66692 47552
L66692 46941
" />
<path d="M67007 47552
L67007 46941
" />
<path d="M67322 47552
L67322 46941
" />
<path d="M68415 48034
L67805 48034
" />
<path d="M68415 48349
L67805 48349
" />
<path d="M68415 48664
L67805 48664
" />
<path d="M68415 48979
L67805 48979
" />
<path d="M68415 49294
L67805 49294
" />
<path d="M68415 49609
L67805 49609
" />
<path d="M68415 49924
L67805 49924
" />
<path d="M68415 50239
L67805 50239
" />
<path d="M68415 50554
L67805 50554
" />
<path d="M68415 50868
L67805 50868
" />
<path d="M68415 51183
L67805 51183
" />
<path d="M68415 51498
L67805 51498
" />
<path d="M68415 51813
L67805 51813
" />
<path d="M68415 52128
L67805 52128
" />
<path d="M68415 52443
L67805 52443
" />
<path d="M68415 52758
L67805 52758
" />
<path d="M67322 53851
L67322 53241
" />
<path d="M67007 53851
L67007 53241
" />
<path d="M66377 53851
L66377 53241
" />
<path d="M66692 53851
L66692 53241
" />
<path d="M66062 53851
L66062 53241
" />
<path d="M65748 53851
L65748 53241
" />
<path d="M65433 53851
L65433 53241
" />
<path d="M65118 53851
L65118 53241
" />
<path d="M64803 53851
L64803 53241
" />
<path d="M64488 53851
L64488 53241
" />
<path d="M64173 53851
L64173 53241
" />
<path d="M63858 53851
L63858 53241
" />
<path d="M63543 53851
L63543 53241
" />
<path d="M63228 53851
L63228 53241
" />
<path d="M62913 53851
L62913 53241
" />
<path d="M62598 53851
L62598 53241
" />
</g>
<g style="fill:#000000; fill-opacity:1.0; 
stroke:#000000; stroke-width:59.0551; stroke-opacity:1; 
stroke-linecap:round; stroke-linejoin:round;">
<polyline style="fill-rule:evenodd;"
points="47100,49406
45387,49406
45387,50134
47100,50134
47100,49406
" /> 
</g>
<g style="fill:#000000; fill-opacity:1.0; 
stroke:#000000; stroke-width:0; stroke-opacity:1; 
stroke-linecap:round; stroke-linejoin:round;">
</g>
<g style="fill:#000000; fill-opacity:1.0; 
stroke:#000000; stroke-width:59.0551; stroke-opacity:1; 
stroke-linecap:round; stroke-linejoin:round;">
<polyline style="fill-rule:evenodd;"
points="45240,49376
43468,49376
43468,50164
45240,50164
45240,49376
" /> 
<polyline style="fill-rule:evenodd;"
points="47100,50311
45387,50311
45387,51040
47100,51040
47100,50311
" /> 
<polyline style="fill-rule:evenodd;"
points="45210,50311
43498,50311
43498,51040
45210,51040
45210,50311
" /> 
<polyline style="fill-rule:evenodd;"
points="47100,51217
45387,51217
45387,51945
47100,51945
47100,51217
" /> 
<polyline style="fill-rule:evenodd;"
points="45210,51217
43498,51217
43498,51945
45210,51945
45210,51217
" /> 
</g>
<g style="fill:#000000; fill-opacity:1.0; 
stroke:#000000; stroke-width:100; stroke-opacity:1; 
stroke-linecap:round; stroke-linejoin:round;">
<path d="M61811 50554
L60889 50554
" />
<path d="M61811 50868
L60889 50868
" />
<path d="M61811 51183
L60889 51183
" />
<path d="M61811 51498
L60889 51498
" />
<path d="M61811 51813
L60889 51813
" />
<path d="M61811 50239
L60889 50239
" />
<path d="M43830 54526
L57783 54526
" />
<path d="M60496 51105
L60889 51105
" />
<path d="M58940 52660
L60496 51105
" />
<path d="M58940 53368
L58940 52660
" />
<path d="M57783 54526
L58940 53368
" />
<path d="M61811 52128
L60996 52128
" />
<path d="M60996 52128
L60889 52022
" />
<path d="M60889 52022
L60889 51813
" />
<path d="M60889 51813
L60889 51498
" />
<path d="M60889 51498
L60889 51183
" />
<path d="M60889 51183
L60889 51105
" />
<path d="M61003 49924
L61811 49924
" />
<path d="M60889 51105
L60889 50868
" />
<path d="M60889 50868
L60889 50554
" />
<path d="M60889 50554
L60889 50239
" />
<path d="M60889 50239
L60889 50038
" />
<path d="M60889 50038
L61003 49924
" />
<path d="M42874 51825
L42874 53569
" />
<path d="M42874 53569
L43830 54526
" />
<path d="M44350 51585
L43114 51585
" />
<path d="M43114 51585
L42874 51825
" />
<path d="M64173 46187
L64015 46187
" />
<path d="M59346 45613
L55188 49770
" />
<path d="M63440 45613
L59346 45613
" />
<path d="M64015 46187
L63440 45613
" />
<path d="M67322 47246
L67322 46187
" />
<path d="M67007 47246
L67007 46187
" />
<path d="M66692 47246
L66692 46187
" />
<path d="M66377 47246
L66377 46187
" />
<path d="M66062 47246
L66062 46187
" />
<path d="M65748 47246
L65748 46187
" />
<path d="M65118 47246
L65118 46187
" />
<path d="M64803 47246
L64803 46187
" />
<path d="M64488 47246
L64488 46187
" />
<path d="M64173 47246
L64173 46187
" />
<path d="M65118 46187
L64803 46187
" />
<path d="M64803 46187
L64488 46187
" />
<path d="M64488 46187
L64173 46187
" />
<path d="M68110 52758
L68960 52758
" />
<path d="M67007 53546
L67007 54349
" />
<path d="M67322 53546
L67322 54349
" />
<path d="M66692 53546
L66692 54231
" />
<path d="M66692 54231
L66811 54349
" />
<path d="M68110 48349
L68960 48349
" />
<path d="M68110 48034
L68960 48034
" />
<path d="M68960 51309
L68960 48349
" />
<path d="M68960 48349
L68960 48034
" />
<path d="M68960 48034
L68960 47140
" />
<path d="M68960 47140
L68007 46187
" />
<path d="M68110 52443
L68960 52443
" />
<path d="M68110 51813
L68960 51813
" />
<path d="M68110 51498
L68960 51498
" />
<path d="M66811 54349
L67007 54349
" />
<path d="M67007 54349
L67322 54349
" />
<path d="M67322 54349
L68098 54349
" />
<path d="M46244 49770
L55188 49770
" />
<path d="M65433 47246
L65433 46187
" />
<path d="M65118 46187
L65433 46187
" />
<path d="M65433 46187
L65748 46187
" />
<path d="M65748 46187
L66062 46187
" />
<path d="M66062 46187
L66377 46187
" />
<path d="M66377 46187
L66692 46187
" />
<path d="M66692 46187
L67007 46187
" />
<path d="M67007 46187
L67322 46187
" />
<path d="M67322 46187
L68007 46187
" />
<path d="M68960 52128
L68960 51813
" />
<path d="M68960 51813
L68960 51498
" />
<path d="M68960 51498
L68960 51309
" />
<path d="M68834 51183
L68110 51183
" />
<path d="M68960 51309
L68834 51183
" />
<path d="M68960 53487
L68960 52758
" />
<path d="M68960 52758
L68960 52443
" />
<path d="M68098 54349
L68960 53487
" />
<path d="M68110 52128
L68960 52128
" />
<path d="M68960 52443
L68960 52128
" />
<path d="M62598 47246
L62598 46593
" />
<path d="M63051 46593
L63228 46770
" />
<path d="M62913 47246
L62913 46593
" />
<path d="M61811 48979
L60598 48979
" />
<path d="M61811 48664
L60598 48664
" />
<path d="M61811 48349
L60598 48349
" />
<path d="M63228 47246
L63228 46770
" />
<path d="M63051 46593
L62913 46593
" />
<path d="M62913 46593
L62598 46593
" />
<path d="M62598 46593
L61259 46593
" />
<path d="M61031 46821
L61031 48034
" />
<path d="M61259 46593
L61031 46821
" />
<path d="M61811 49294
L60598 49294
" />
<path d="M61811 48034
L61031 48034
" />
<path d="M61031 48034
L60700 48034
" />
<path d="M60598 48136
L60598 48349
" />
<path d="M60598 48349
L60598 48664
" />
<path d="M60598 48664
L60598 48979
" />
<path d="M60598 48979
L60598 49294
" />
<path d="M60598 49294
L60598 49609
" />
<path d="M60700 48034
L60598 48136
" />
<path d="M46244 51581
L58161 51581
" />
<path d="M60133 49609
L60598 49609
" />
<path d="M60598 49609
L61811 49609
" />
<path d="M58161 51581
L60133 49609
" />
<path d="M64803 54530
L64488 54530
" />
<path d="M64173 54069
L64488 54069
" />
<path d="M64488 53546
L64488 54069
" />
<path d="M64488 54069
L64488 54530
" />
<path d="M64488 54530
L64488 54561
" />
<path d="M64488 54561
L64385 54664
" />
<path d="M64385 54664
L64122 54664
" />
<path d="M64173 53546
L64173 54069
" />
<path d="M64173 54069
L63858 54069
" />
<path d="M63543 54069
L63858 54069
" />
<path d="M65748 53546
L65748 54530
" />
<path d="M64803 53546
L64803 54530
" />
<path d="M62913 53546
L62913 55246
" />
<path d="M62913 55246
L62925 55258
" />
<path d="M62925 55258
L65964 55258
" />
<path d="M65964 55258
L66062 55160
" />
<path d="M66062 55160
L66062 54530
" />
<path d="M66062 54530
L66062 53546
" />
<path d="M65433 53546
L65433 54530
" />
<path d="M65118 53546
L65118 54530
" />
<path d="M63543 53546
L63543 54069
" />
<path d="M66062 54530
L65748 54530
" />
<path d="M65748 54530
L65433 54530
" />
<path d="M65433 54530
L65118 54530
" />
<path d="M65118 54530
L64803 54530
" />
<path d="M63858 53546
L63858 54069
" />
<path d="M63228 53546
L63228 54235
" />
<path d="M63468 54475
L63468 54664
" />
<path d="M63228 54235
L63468 54475
" />
<path d="M61811 52443
L60578 52443
" />
<path d="M59787 53235
L59787 54534
" />
<path d="M60578 52443
L59787 53235
" />
<path d="M42358 54050
L43401 55093
" />
<path d="M58681 55093
L59228 55093
" />
<path d="M59787 54534
L59787 54530
" />
<path d="M59228 55093
L59787 54534
" />
<path d="M59224 55093
L58681 55093
" />
<path d="M58681 55093
L43401 55093
" />
<path d="M42358 51239
L42358 54050
" />
<path d="M42917 50680
L44350 50680
" />
<path d="M42358 51239
L42917 50680
" />
<path d="M59224 55093
L59787 54530
" />
<path d="M62598 55069
L62598 55546
" />
<path d="M42456 49431
L42456 45963
" />
<path d="M69405 45368
L69405 55215
" />
<path d="M69090 45054
L69405 45368
" />
<path d="M43366 45054
L69090 45054
" />
<path d="M42456 45963
L43366 45054
" />
<path d="M66377 53546
L66377 55546
" />
<path d="M60795 54766
L60795 55321
" />
<path d="M61019 55546
L62598 55546
" />
<path d="M60795 55321
L61019 55546
" />
<path d="M62598 55546
L66377 55546
" />
<path d="M69074 55546
L69405 55215
" />
<path d="M66377 55546
L69074 55546
" />
<path d="M42456 49431
L42795 49770
" />
<path d="M42795 49770
L44354 49770
" />
<path d="M62598 53546
L62598 55069
" />
<path d="M61811 52758
L60929 52758
" />
<path d="M60795 52892
L60795 54766
" />
<path d="M60929 52758
L60795 52892
" />
<path d="M63543 47246
L63543 46530
" />
<path d="M55874 50676
L46244 50676
" />
<path d="M60409 46140
L55874 50676
" />
<path d="M63153 46140
L60409 46140
" />
<path d="M63543 46530
L63153 46140
" />
</g> 
</svg>
